<?xml version="1.0" encoding="utf-8"?>
<!-- Generator: Adobe Illustrator 21.1.0, SVG Export Plug-In . SVG Version: 6.00 Build 0)  -->
<svg version="1.1" id="Layer_1" xmlns="http://www.w3.org/2000/svg" xmlns:xlink="http://www.w3.org/1999/xlink" x="0px" y="0px"
	 viewBox="0 0 600 600" style="enable-background:new 0 0 600 600;" xml:space="preserve">
<style type="text/css">
	.st0{fill-rule:evenodd;clip-rule:evenodd;fill:#FFFFFF;}
	.st1{fill:#FFFFFF;}
</style>
<g>
	<path class="st0" d="M298.5,19.6c-160.7,0-291,130.3-291,291c0,128.6,83.4,237.6,199,276.1c14.5,2.7,19.9-6.3,19.9-14
		c0-6.9-0.3-29.9-0.4-54.2c-80.9,17.6-98-34.3-98-34.3c-13.2-33.6-32.3-42.6-32.3-42.6c-26.4-18.1,2-17.7,2-17.7
		c29.2,2.1,44.6,30,44.6,30c25.9,44.5,68.1,31.6,84.7,24.2c2.6-18.8,10.1-31.6,18.5-38.9c-64.6-7.4-132.6-32.3-132.6-143.8
		c0-31.8,11.4-57.7,30-78.1c-3-7.3-13-36.9,2.8-77c0,0,24.4-7.8,80,29.8c23.2-6.4,48.1-9.7,72.8-9.8c24.7,0.1,49.6,3.3,72.9,9.8
		c55.5-37.6,79.9-29.8,79.9-29.8c15.8,40.1,5.9,69.7,2.9,77c18.7,20.4,29.9,46.3,29.9,78.1c0,111.8-68.1,136.4-132.9,143.6
		c10.4,9,19.7,26.7,19.7,53.9c0,38.9-0.3,70.3-0.3,79.8c0,7.7,5.2,16.8,20,14C506.2,548.1,589.5,439,589.5,310.5
		C589.5,149.8,459.2,19.6,298.5,19.6z"/>
	<path class="st1" d="M117.8,437.3c-0.6,1.4-2.9,1.9-5,0.9c-2.1-1-3.3-2.9-2.6-4.4c0.6-1.5,2.9-1.9,5-0.9
		C117.3,433.9,118.5,435.9,117.8,437.3L117.8,437.3z M114.2,434.7"/>
	<path class="st1" d="M129.6,450.5c-1.4,1.3-4.1,0.7-5.9-1.3c-1.9-2-2.3-4.7-0.9-6c1.4-1.3,4.1-0.7,6,1.3
		C130.6,446.5,131,449.2,129.6,450.5L129.6,450.5z M126.8,447.5"/>
	<path class="st1" d="M141,467.2c-1.8,1.2-4.7,0.1-6.5-2.5c-1.8-2.6-1.8-5.7,0-6.9c1.8-1.2,4.7-0.1,6.5,2.4
		C142.9,462.9,142.9,466,141,467.2L141,467.2z M141,467.2"/>
	<path class="st1" d="M156.8,483.4c-1.6,1.8-5,1.3-7.5-1.1c-2.5-2.3-3.3-5.7-1.7-7.4c1.6-1.8,5-1.3,7.5,1.1
		C157.7,478.3,158.5,481.7,156.8,483.4L156.8,483.4z M156.8,483.4"/>
	<path class="st1" d="M178.4,492.8c-0.7,2.3-4,3.3-7.3,2.3c-3.3-1-5.4-3.7-4.8-6c0.7-2.3,4-3.4,7.3-2.3
		C177,487.8,179.1,490.5,178.4,492.8L178.4,492.8z M178.4,492.8"/>
	<path class="st1" d="M202.3,494.6c0.1,2.4-2.7,4.4-6.2,4.4c-3.5,0.1-6.3-1.9-6.3-4.2c0-2.4,2.7-4.4,6.2-4.5
		C199.4,490.2,202.3,492.2,202.3,494.6L202.3,494.6z M202.3,494.6"/>
	<path class="st1" d="M224.4,490.8c0.4,2.3-2,4.7-5.4,5.4c-3.4,0.6-6.5-0.8-6.9-3.1c-0.4-2.4,2-4.8,5.4-5.4
		C220.9,487,224,488.4,224.4,490.8L224.4,490.8z M224.4,490.8"/>
</g>
</svg>
