<?xml version="1.0" encoding="utf-8"?>
<!-- Generator: Adobe Illustrator 21.1.0, SVG Export Plug-In . SVG Version: 6.00 Build 0)  -->
<svg version="1.1" id="Layer_1" xmlns="http://www.w3.org/2000/svg" xmlns:xlink="http://www.w3.org/1999/xlink" x="0px" y="0px"
	 viewBox="0 0 600 600" style="enable-background:new 0 0 600 600;" xml:space="preserve">
<style type="text/css">
	.st0{fill:none;stroke:#FFFFFF;stroke-width:6;stroke-miterlimit:10;}
	.st1{fill:none;}
</style>
<g>
	<g>
		<path class="st0" d="M516.6,51.1H73.7c-21.1,0-38.3,16.8-38.3,37.5v444.8c0,20.7,17.2,37.5,38.3,37.5h442.9
			c21.2,0,38.4-16.8,38.4-37.5V88.6C555.1,67.9,537.8,51.1,516.6,51.1z M189.5,494h-77.2v-248h77.2V494z M150.9,212
			c-24.8,0-44.7-20-44.7-44.7c0-24.7,20-44.7,44.7-44.7c24.7,0,44.7,20,44.7,44.7C195.6,192,175.6,212,150.9,212z M478.2,494h-77.1
			V373.3c0-28.8-0.5-65.8-40.1-65.8c-40.1,0-46.2,31.3-46.2,63.7V494h-77v-248h73.9v33.9h1.1c10.3-19.5,35.4-40.1,72.9-40.1
			c78,0,92.5,51.4,92.5,118.2V494z"/>
	</g>
</g>
<rect class="st1" width="600" height="600"/>
</svg>
